<?xml version="1.0" standalone="no"?>
<!DOCTYPE svg PUBLIC "-//W3C//DTD SVG 20010904//EN"
 "http://www.w3.org/TR/2001/REC-SVG-20010904/DTD/svg10.dtd">
<svg version="1.0" xmlns="http://www.w3.org/2000/svg"
 width="128.000000pt" height="128.000000pt" viewBox="0 0 128.000000 128.000000"
 preserveAspectRatio="xMidYMid meet">

<g transform="translate(0.000000,128.000000) scale(0.100000,-0.100000)"
fill="#000000" stroke="none">
<path d="M75 1111 c-11 -5 -31 -21 -45 -36 l-25 -27 0 -409 0 -409 33 -32 32
-33 570 0 570 0 32 33 33 32 0 410 0 410 -33 32 -32 33 -558 2 c-306 1 -566
-2 -577 -6z m1075 -95 c-56 -54 -502 -436 -509 -436 -7 0 -464 391 -516 441
-19 19 -12 19 515 19 l535 0 -25 -24z m-736 -353 c116 -101 218 -183 226 -183
8 0 137 105 285 234 l270 233 3 -340 c2 -242 -1 -344 -9 -353 -16 -19 -1078
-21 -1097 -2 -9 9 -12 102 -12 356 l0 344 62 -54 c34 -29 157 -135 272 -235z"/>
</g>
</svg>
