<?xml version="1.0" standalone="no"?>
<!DOCTYPE svg PUBLIC "-//W3C//DTD SVG 20010904//EN"
 "http://www.w3.org/TR/2001/REC-SVG-20010904/DTD/svg10.dtd">
<svg version="1.0" xmlns="http://www.w3.org/2000/svg"
 width="512.000000pt" height="512.000000pt" viewBox="0 0 512.000000 512.000000"
 preserveAspectRatio="xMidYMid meet">

<g transform="translate(0.000000,512.000000) scale(0.100000,-0.100000)"
fill="#000000" stroke="none">
<path d="M1347 3581 c-378 -379 -687 -694 -687 -700 0 -6 312 -322 692 -701
l693 -690 115 115 115 115 -500 500 -500 500 1110 -2 c1206 -4 1122 0 1276
-58 185 -68 376 -265 446 -458 51 -139 53 -170 53 -808 l0 -594 161 0 160 0
-4 643 c-4 692 -3 675 -60 842 -110 319 -373 582 -692 692 -174 60 -100 56
-1330 60 l-1129 4 504 504 505 505 -110 110 c-60 60 -115 110 -121 110 -6 0
-319 -310 -697 -689z"/>
</g>
</svg>
