<?xml version="1.0" standalone="no"?>
<!DOCTYPE svg PUBLIC "-//W3C//DTD SVG 20010904//EN"
 "http://www.w3.org/TR/2001/REC-SVG-20010904/DTD/svg10.dtd">
<svg version="1.0" xmlns="http://www.w3.org/2000/svg"
 width="512.000000pt" height="512.000000pt" viewBox="0 0 512.000000 512.000000"
 preserveAspectRatio="xMidYMid meet">

<g transform="translate(0.000000,512.000000) scale(0.100000,-0.100000)"
fill="#000000" stroke="none">
<path d="M1185 4030 c-57 -28 -719 -693 -740 -742 -19 -48 -19 -128 0 -176 22
-52 684 -715 744 -744 137 -66 302 32 304 181 1 90 -15 115 -182 284 l-155
158 1239 -4 c1368 -3 1282 1 1429 -66 211 -96 368 -285 423 -509 22 -92 21
-257 -2 -347 -70 -273 -273 -478 -548 -552 -56 -15 -178 -18 -1279 -23 l-1216
-5 -43 -30 c-64 -45 -91 -104 -87 -186 4 -76 32 -127 95 -169 l37 -25 1215 -3
c1064 -2 1227 0 1301 13 491 90 864 462 955 954 19 107 19 295 0 402 -80 429
-375 772 -785 911 -176 59 -138 58 -1493 58 l-1240 0 155 158 c171 174 183
194 176 293 -5 73 -43 132 -107 166 -57 30 -139 31 -196 3z"/>
</g>
</svg>
