<?xml version="1.0" encoding="UTF-8"?>
<!DOCTYPE svg PUBLIC "-//W3C//DTD SVG 1.1//EN" "http://www.w3.org/Graphics/SVG/1.1/DTD/svg11.dtd">
<svg xmlns="http://www.w3.org/2000/svg" version="1.1" width="512px" height="512px" style="shape-rendering:geometricPrecision; text-rendering:geometricPrecision; image-rendering:optimizeQuality; fill-rule:evenodd; clip-rule:evenodd" xmlns:xlink="http://www.w3.org/1999/xlink">
<g><path style="opacity:0.992" fill="#000000" d="M 249.5,-0.5 C 253.5,-0.5 257.5,-0.5 261.5,-0.5C 328.627,18.6186 395.96,37.4519 463.5,56C 471.254,57.4227 476.088,61.9227 478,69.5C 485.308,127.391 486.308,185.391 481,243.5C 477.747,277.1 470.414,309.767 459,341.5C 448.077,368.726 432.744,393.06 413,414.5C 370.965,460.098 320.465,492.432 261.5,511.5C 257.5,511.5 253.5,511.5 249.5,511.5C 175.124,487.625 115.624,443.625 71,379.5C 55.0906,352.78 44.0906,324.113 38,293.5C 29.978,253.237 26.1447,212.571 26.5,171.5C 26.637,137.367 28.8037,103.367 33,69.5C 34.9123,61.9227 39.7456,57.4227 47.5,56C 115.04,37.4519 182.373,18.6186 249.5,-0.5 Z M 354.5,144.5 C 359.984,143.826 364.984,144.992 369.5,148C 376,154.5 382.5,161 389,167.5C 393.225,173.631 393.558,179.965 390,186.5C 341.139,235.694 291.972,284.528 242.5,333C 236.794,335.191 231.461,334.524 226.5,331C 196.333,300.833 166.167,270.667 136,240.5C 132.488,233.627 132.821,226.96 137,220.5C 143.167,214.333 149.333,208.167 155.5,202C 163.428,195.896 171.095,196.229 178.5,203C 197.667,222.167 216.833,241.333 236,260.5C 273.167,223.333 310.333,186.167 347.5,149C 349.898,147.476 352.231,145.976 354.5,144.5 Z"/></g>
</svg>
