<?xml version="1.0" standalone="no"?>
<!DOCTYPE svg PUBLIC "-//W3C//DTD SVG 20010904//EN"
 "http://www.w3.org/TR/2001/REC-SVG-20010904/DTD/svg10.dtd">
<svg version="1.0" xmlns="http://www.w3.org/2000/svg"
 width="128.000000pt" height="128.000000pt" viewBox="0 0 128.000000 128.000000"
 preserveAspectRatio="xMidYMid meet">

<g transform="translate(0.000000,128.000000) scale(0.100000,-0.100000)"
fill="#000000" stroke="none">
<path d="M203 1264 c-18 -9 -66 -51 -107 -94 -64 -67 -76 -85 -86 -132 -39
-173 118 -490 352 -713 234 -223 529 -358 688 -315 35 10 63 30 131 99 137
136 134 163 -35 329 -110 109 -114 112 -157 112 -51 0 -73 -13 -145 -82 l-51
-50 -34 18 c-105 53 -270 219 -323 322 l-17 34 54 56 c29 32 59 68 66 81 18
33 16 87 -5 119 -30 47 -157 174 -203 203 -51 33 -82 36 -128 13z m185 -158
c68 -69 102 -111 102 -125 0 -15 -25 -48 -70 -92 -45 -45 -70 -78 -70 -92 0
-101 345 -447 445 -447 12 0 44 24 75 56 68 68 101 87 132 75 13 -5 65 -52
116 -104 115 -118 116 -124 30 -214 -35 -36 -76 -72 -93 -80 -37 -20 -119 -19
-187 1 -72 21 -229 102 -314 162 -146 102 -328 313 -408 471 -40 80 -76 200
-76 255 0 68 20 105 95 177 91 87 97 86 223 -43z"/>
</g>
</svg>
