<?xml version="1.0" standalone="no"?>
<!DOCTYPE svg PUBLIC "-//W3C//DTD SVG 20010904//EN"
 "http://www.w3.org/TR/2001/REC-SVG-20010904/DTD/svg10.dtd">
<svg version="1.0" xmlns="http://www.w3.org/2000/svg"
 width="512.000000pt" height="512.000000pt" viewBox="0 0 512.000000 512.000000"
 preserveAspectRatio="xMidYMid meet">

<g transform="translate(0.000000,512.000000) scale(0.100000,-0.100000)"
fill="#000000" stroke="none">
<path d="M0 4220 l0 -900 900 0 900 0 0 900 0 900 -900 0 -900 0 0 -900z
m1400 0 l0 -500 -500 0 -500 0 0 500 0 500 500 0 500 0 0 -500z"/>
<path d="M700 4220 l0 -200 200 0 200 0 0 200 0 200 -200 0 -200 0 0 -200z"/>
<path d="M2560 4820 l0 -300 -200 0 -200 0 0 -200 0 -200 200 0 200 0 0 -200
0 -200 -200 0 -200 0 0 -575 0 -575 -180 0 -180 0 0 200 0 200 -200 0 -200 0
0 -200 0 -200 -200 0 -200 0 0 200 0 200 -500 0 -500 0 0 -400 0 -400 200 0
200 0 0 200 0 200 300 0 300 0 0 -200 0 -200 580 0 580 0 0 -285 0 -285 200 0
200 0 0 -200 0 -200 -200 0 -200 0 0 -200 0 -200 200 0 200 0 0 -400 0 -400
400 0 400 0 0 200 0 200 -200 0 -200 0 0 200 0 200 -200 0 -200 0 0 200 0 200
400 0 400 0 0 -200 0 -200 400 0 400 0 0 -200 0 -200 -200 0 -200 0 0 -200 0
-200 200 0 200 0 0 200 0 200 200 0 200 0 0 -200 0 -200 280 0 280 0 0 200 0
200 -280 0 -280 0 0 200 0 200 -200 0 -200 0 0 200 0 200 480 0 480 0 0 485 0
485 -200 0 -200 0 0 200 0 200 200 0 200 0 0 200 0 200 -200 0 -200 0 0 -200
0 -200 -280 0 -280 0 0 200 0 200 -600 0 -600 0 0 -200 0 -200 -200 0 -200 0
0 375 0 375 200 0 200 0 0 400 0 400 -200 0 -200 0 0 200 0 200 200 0 200 0 0
300 0 300 -200 0 -200 0 0 -300z m0 -2450 l0 -200 200 0 200 0 0 200 0 200
600 0 600 0 0 -200 0 -200 280 0 280 0 0 -285 0 -285 -280 0 -280 0 0 -200 0
-200 -400 0 -400 0 0 485 0 485 -200 0 -200 0 0 -285 0 -285 -200 0 -200 0 0
285 0 285 -200 0 -200 0 0 200 0 200 200 0 200 0 0 -200z"/>
<path d="M3760 1970 l0 -200 200 0 200 0 0 200 0 200 -200 0 -200 0 0 -200z"/>
<path d="M3320 4220 l0 -900 900 0 900 0 0 900 0 900 -900 0 -900 0 0 -900z
m1400 0 l0 -500 -500 0 -500 0 0 500 0 500 500 0 500 0 0 -500z"/>
<path d="M4020 4220 l0 -200 200 0 200 0 0 200 0 200 -200 0 -200 0 0 -200z"/>
<path d="M0 900 l0 -900 900 0 900 0 0 900 0 900 -900 0 -900 0 0 -900z m1400
0 l0 -500 -500 0 -500 0 0 500 0 500 500 0 500 0 0 -500z"/>
<path d="M700 900 l0 -200 200 0 200 0 0 200 0 200 -200 0 -200 0 0 -200z"/>
</g>
</svg>
