<?xml version="1.0" standalone="no"?>
<!DOCTYPE svg PUBLIC "-//W3C//DTD SVG 20010904//EN"
 "http://www.w3.org/TR/2001/REC-SVG-20010904/DTD/svg10.dtd">
<svg version="1.0" xmlns="http://www.w3.org/2000/svg"
 width="512.000000pt" height="512.000000pt" viewBox="0 0 512.000000 512.000000"
 preserveAspectRatio="xMidYMid meet">

<g transform="translate(0.000000,512.000000) scale(0.100000,-0.100000)"
fill="#000000" stroke="none">
<path d="M205 4042 c-97 -33 -162 -101 -190 -195 -20 -66 -22 -690 -3 -732 15
-33 56 -55 102 -55 116 0 245 -57 337 -149 199 -199 199 -503 0 -702 -92 -92
-221 -149 -337 -149 -47 0 -89 -23 -103 -58 -9 -21 -11 -123 -9 -373 l3 -344
28 -57 c32 -64 80 -111 146 -142 l46 -21 2335 0 2335 0 46 21 c66 31 114 78
146 142 l28 57 3 344 c2 250 0 352 -9 373 -14 35 -56 58 -103 58 -115 0 -243
57 -336 149 -201 198 -200 504 0 702 94 93 220 149 336 149 47 0 89 23 103 58
9 21 11 123 9 373 l-3 344 -28 57 c-32 64 -80 111 -146 142 l-46 21 -2320 2
c-2182 2 -2323 1 -2370 -15z m995 -342 c0 -120 4 -168 14 -189 35 -66 137 -66
172 0 10 21 14 69 14 189 l0 160 1720 0 c1311 0 1725 -3 1745 -12 52 -23 55
-44 55 -331 l0 -264 -57 -12 c-32 -7 -101 -33 -153 -58 -80 -39 -108 -59 -181
-132 -71 -71 -94 -102 -133 -181 -101 -206 -101 -414 0 -620 39 -79 62 -110
133 -181 73 -73 101 -93 181 -132 52 -25 121 -51 153 -58 l57 -12 0 -264 c0
-287 -3 -308 -55 -331 -20 -9 -434 -12 -1745 -12 l-1720 0 0 160 c0 176 -7
206 -55 228 -33 15 -57 15 -90 0 -48 -22 -55 -52 -55 -228 l0 -160 -460 0
c-335 0 -466 3 -485 12 -52 23 -55 44 -55 331 l0 264 63 13 c34 8 103 34 152
58 73 37 107 62 176 131 72 72 94 102 132 181 102 209 102 411 0 620 -38 79
-60 109 -132 181 -70 70 -103 94 -179 132 -50 25 -119 51 -152 58 l-60 12 0
266 c1 284 3 301 51 327 19 10 122 13 487 14 l462 0 0 -160z"/>
<path d="M1251 3246 c-42 -23 -50 -52 -51 -183 0 -135 9 -167 51 -189 52 -27
115 -8 137 41 7 15 12 74 12 145 0 71 -5 130 -12 145 -22 48 -88 68 -137 41z"/>
<path d="M2051 3246 c-67 -37 -65 -143 4 -174 19 -9 245 -12 906 -12 956 0
921 -2 947 55 23 51 7 107 -39 131 -40 20 -1781 20 -1818 0z"/>
<path d="M1251 2646 c-87 -48 -50 -186 49 -186 51 0 100 49 100 99 0 75 -83
124 -149 87z"/>
<path d="M2051 2646 c-67 -37 -65 -143 4 -174 19 -9 245 -12 906 -12 956 0
921 -2 947 55 23 51 7 107 -39 131 -40 20 -1781 20 -1818 0z"/>
<path d="M1251 2246 c-42 -23 -50 -52 -51 -183 0 -135 9 -167 51 -189 52 -27
115 -8 137 41 7 15 12 74 12 145 0 71 -5 130 -12 145 -22 48 -88 68 -137 41z"/>
<path d="M2051 2046 c-67 -37 -65 -143 4 -174 19 -9 245 -12 906 -12 956 0
921 -2 947 55 23 51 7 107 -39 131 -40 20 -1781 20 -1818 0z"/>
</g>
</svg>
