<?xml version="1.0" encoding="UTF-8"?>
<!DOCTYPE svg PUBLIC "-//W3C//DTD SVG 1.1//EN" "http://www.w3.org/Graphics/SVG/1.1/DTD/svg11.dtd">
<svg xmlns="http://www.w3.org/2000/svg" version="1.1" width="512px" height="512px" style="shape-rendering:geometricPrecision; text-rendering:geometricPrecision; image-rendering:optimizeQuality; fill-rule:evenodd; clip-rule:evenodd" xmlns:xlink="http://www.w3.org/1999/xlink">
<g><path style="opacity:0.995" fill="#21246e" d="M 511.5,106.5 C 511.5,205.833 511.5,305.167 511.5,404.5C 508.809,411.351 503.809,415.518 496.5,417C 335.833,417.667 175.167,417.667 14.5,417C 7.19081,415.518 2.19081,411.351 -0.5,404.5C -0.5,305.167 -0.5,205.833 -0.5,106.5C 2.19081,99.6486 7.19081,95.482 14.5,94C 175.167,93.3333 335.833,93.3333 496.5,94C 503.809,95.482 508.809,99.6486 511.5,106.5 Z"/></g>
<g><path style="opacity:1" fill="#fcfcfd" d="M 298.5,185.5 C 314.531,184.256 330.197,185.923 345.5,190.5C 344.158,200.218 342.491,209.885 340.5,219.5C 333.598,217.367 326.598,215.534 319.5,214C 311.175,212.753 303.175,213.753 295.5,217C 289.244,221.953 288.91,227.286 294.5,233C 305.167,239.333 315.833,245.667 326.5,252C 339.755,263.634 343.255,277.801 337,294.5C 331.771,306.728 322.938,315.228 310.5,320C 287.043,327.632 263.71,327.299 240.5,319C 239.941,318.275 239.608,317.442 239.5,316.5C 241.273,307.578 243.273,298.745 245.5,290C 252.068,291.929 258.735,293.929 265.5,296C 276.565,298.752 287.232,297.752 297.5,293C 303.715,287.292 304.048,281.292 298.5,275C 290.328,270.08 281.995,265.413 273.5,261C 256.432,250.684 250.599,235.851 256,216.5C 260.775,205.392 268.609,197.225 279.5,192C 285.909,189.659 292.243,187.492 298.5,185.5 Z"/></g>
<g><path style="opacity:1" fill="#fcfcfd" d="M 29.5,187.5 C 50.8359,187.333 72.1693,187.5 93.5,188C 100.07,190.238 104.237,194.738 106,201.5C 110.743,227.217 115.743,252.884 121,278.5C 133.333,248.328 145.167,217.995 156.5,187.5C 168.833,187.5 181.167,187.5 193.5,187.5C 175.128,232.582 156.462,277.582 137.5,322.5C 124.851,323.499 112.184,323.832 99.5,323.5C 90.8035,287.047 81.6368,250.714 72,214.5C 70.2639,207.763 66.0972,203.263 59.5,201C 49.1043,197.59 38.771,194.09 28.5,190.5C 29.1272,189.583 29.4606,188.583 29.5,187.5 Z"/></g>
<g><path style="opacity:1" fill="#fcfcfd" d="M 208.5,187.5 C 220.518,187.168 232.518,187.501 244.5,188.5C 234.297,233.381 224.631,278.381 215.5,323.5C 203.833,323.5 192.167,323.5 180.5,323.5C 189.704,278.148 199.037,232.815 208.5,187.5 Z"/></g>
<g><path style="opacity:1" fill="#fdfdfd" d="M 400.5,187.5 C 412.5,187.5 424.5,187.5 436.5,187.5C 445.755,232.774 454.755,278.108 463.5,323.5C 452.813,323.832 442.146,323.499 431.5,322.5C 430.167,316.5 428.833,310.5 427.5,304.5C 412.181,303.501 396.848,303.167 381.5,303.5C 379.302,310.096 377.302,316.763 375.5,323.5C 363.167,323.5 350.833,323.5 338.5,323.5C 355.762,280.303 373.596,237.303 392,194.5C 394.441,191.546 397.275,189.213 400.5,187.5 Z"/></g>
<g><path style="opacity:1" fill="#262770" d="M 420.5,271.5 C 420.5,272.5 420.5,273.5 420.5,274.5C 411.318,274.827 402.318,274.493 393.5,273.5C 398.844,256.968 404.677,240.634 411,224.5C 414.168,240.179 417.335,255.845 420.5,271.5 Z"/></g>
<g><path style="opacity:1" fill="#52548e" d="M 420.5,271.5 C 421.434,272.568 421.768,273.901 421.5,275.5C 411.81,275.832 402.144,275.498 392.5,274.5C 392.624,273.893 392.957,273.56 393.5,273.5C 402.318,274.493 411.318,274.827 420.5,274.5C 420.5,273.5 420.5,272.5 420.5,271.5 Z"/></g>
</svg>
